<?xml version="1.0" encoding="utf-8" ?>
<svg baseProfile="full" class="WaveDrom" height="101" version="1.1" viewBox="0,0,809,101" width="809" xmlns="http://www.w3.org/2000/svg" xmlns:ev="http://www.w3.org/2001/xml-events" xmlns:xlink="http://www.w3.org/1999/xlink"><defs /><g font-family="sans-serif" font-size="14" font-weight="normal" text-anchor="middle" transform="translate(4.5,0.5)"><g stroke="black" stroke-linecap="round" stroke-width="1" transform="translate(0,20.0)"><line x1="0" x2="800" y1="0" y2="0" /><line x1="0" x2="0" y1="0" y2="0" /><line x1="0" x2="800" y1="40.0" y2="40.0" /><line x1="0.0" x2="0.0" y1="0" y2="40.0" /><line x1="33.333333333333336" x2="33.333333333333336" y1="0" y2="5.0" /><line x1="33.333333333333336" x2="33.333333333333336" y1="35.0" y2="40.0" /><line x1="66.66666666666667" x2="66.66666666666667" y1="0" y2="5.0" /><line x1="66.66666666666667" x2="66.66666666666667" y1="35.0" y2="40.0" /><line x1="100.0" x2="100.0" y1="0" y2="5.0" /><line x1="100.0" x2="100.0" y1="35.0" y2="40.0" /><line x1="133.33333333333334" x2="133.33333333333334" y1="0" y2="5.0" /><line x1="133.33333333333334" x2="133.33333333333334" y1="35.0" y2="40.0" /><line x1="166.66666666666669" x2="166.66666666666669" y1="0" y2="5.0" /><line x1="166.66666666666669" x2="166.66666666666669" y1="35.0" y2="40.0" /><line x1="200.0" x2="200.0" y1="0" y2="5.0" /><line x1="200.0" x2="200.0" y1="35.0" y2="40.0" /><line x1="233.33333333333334" x2="233.33333333333334" y1="0" y2="5.0" /><line x1="233.33333333333334" x2="233.33333333333334" y1="35.0" y2="40.0" /><line x1="266.6666666666667" x2="266.6666666666667" y1="0" y2="5.0" /><line x1="266.6666666666667" x2="266.6666666666667" y1="35.0" y2="40.0" /><line x1="300.0" x2="300.0" y1="0" y2="5.0" /><line x1="300.0" x2="300.0" y1="35.0" y2="40.0" /><line x1="333.33333333333337" x2="333.33333333333337" y1="0" y2="5.0" /><line x1="333.33333333333337" x2="333.33333333333337" y1="35.0" y2="40.0" /><line x1="366.6666666666667" x2="366.6666666666667" y1="0" y2="5.0" /><line x1="366.6666666666667" x2="366.6666666666667" y1="35.0" y2="40.0" /><line x1="400.0" x2="400.0" y1="0" y2="5.0" /><line x1="400.0" x2="400.0" y1="35.0" y2="40.0" /><line x1="433.33333333333337" x2="433.33333333333337" y1="0" y2="5.0" /><line x1="433.33333333333337" x2="433.33333333333337" y1="35.0" y2="40.0" /><line x1="466.6666666666667" x2="466.6666666666667" y1="0" y2="5.0" /><line x1="466.6666666666667" x2="466.6666666666667" y1="35.0" y2="40.0" /><line x1="500.00000000000006" x2="500.00000000000006" y1="0" y2="5.0" /><line x1="500.00000000000006" x2="500.00000000000006" y1="35.0" y2="40.0" /><line x1="533.3333333333334" x2="533.3333333333334" y1="0" y2="5.0" /><line x1="533.3333333333334" x2="533.3333333333334" y1="35.0" y2="40.0" /><line x1="566.6666666666667" x2="566.6666666666667" y1="0" y2="5.0" /><line x1="566.6666666666667" x2="566.6666666666667" y1="35.0" y2="40.0" /><line x1="600.0" x2="600.0" y1="0" y2="5.0" /><line x1="600.0" x2="600.0" y1="35.0" y2="40.0" /><line x1="633.3333333333334" x2="633.3333333333334" y1="0" y2="5.0" /><line x1="633.3333333333334" x2="633.3333333333334" y1="35.0" y2="40.0" /><line x1="666.6666666666667" x2="666.6666666666667" y1="0" y2="40.0" /><line x1="700.0" x2="700.0" y1="0" y2="40.0" /><line x1="733.3333333333334" x2="733.3333333333334" y1="0" y2="5.0" /><line x1="733.3333333333334" x2="733.3333333333334" y1="35.0" y2="40.0" /><line x1="766.6666666666667" x2="766.6666666666667" y1="0" y2="40.0" /><line x1="800.0" x2="800.0" y1="0" y2="40.0" /></g><g text-anchor="middle"><g><g transform="translate(0,20.0)"><rect height="40.0" style="fill-opacity:0.1;fill:hsl(170,100%,50%)" width="33.333333333333336" x="666.6666666666667" y="0" /><rect height="40.0" style="fill-opacity:0.1" width="66.66666666666667" x="700.0" y="0" /><rect height="40.0" style="fill-opacity:0.1;fill:hsl(80,100%,50%)" width="33.333333333333336" x="766.6666666666667" y="0" /></g><g transform="translate(16.666666666666668,16.0)"><text x="0.0"><tspan>0</tspan></text><text x="633.3333333333334"><tspan>19</tspan></text><text x="666.6666666666667"><tspan>20</tspan></text><text x="700.0"><tspan>21</tspan></text><text x="733.3333333333334"><tspan>22</tspan></text><text x="766.6666666666667"><tspan>23</tspan></text></g><g transform="translate(16.666666666666668,44.0)"><text x="316.6666666666667"><tspan>Measurement Value</tspan></text><text x="666.6666666666667"><tspan>Sign</tspan></text><text x="766.6666666666667"><tspan>Unit</tspan></text></g><g transform="translate(16.666666666666668,80)"><text x="666.6666666666667"><tspan>0:Positive</tspan></text><text x="666.6666666666667" y="16"><tspan>1:Negative</tspan></text><text x="766.6666666666667"><tspan>0:mm</tspan></text><text x="766.6666666666667" y="16"><tspan>1:in</tspan></text></g></g></g></g></svg>